PathFileType	4	(X/Y/Z)	D:\TRACE\v60_Jaco2_6-2-23\v60_baseline_2-platform.trc
DataRate	CameraRate	NumFrames	NumMarkers	Units	OrigDataRate	OrigDataStartFrame	OrigNumFrames
100.00	100.00	      50	5	mm	100.00	913	      7303
Frame#	Time	Left_Front			Right_Front			Left_Aft			Right_Aft			Post			
		X1	Y1	Z1	X2	Y2	Z2	X3	Y3	Z3	X4	Y4	Z4	X5	Y5	Z5	

913	9.120	-800.58038	8.87357	-638.74371	769.37170	10.07597	-644.38159	-708.69421	7.78092	496.13904	733.49054	6.95308	505.76022	-14.26471	1308.13342	-961.44641	
914	9.130	-800.52704	8.77841	-638.90570	769.31219	10.07786	-644.39691	-708.64636	7.72625	496.16132	733.56726	6.98843	505.72794	-14.26319	1308.11206	-961.39716	
915	9.140	-800.52277	8.85987	-638.83307	769.32733	10.05202	-644.37579	-708.45703	7.53736	496.11053	733.60272	7.03674	505.73862	-14.23352	1308.16821	-961.47510	
916	9.150	-800.61206	8.99722	-638.68256	769.39496	10.07474	-644.29382	-708.30499	7.44124	495.95618	733.52130	6.97853	505.74243	-14.24998	1308.20972	-961.58856	
917	9.160	-800.65466	8.99064	-638.63647	769.40503	10.13720	-644.34467	-708.54633	7.63521	496.14453	733.49567	6.92635	505.75671	-14.32964	1308.27051	-961.67151	
918	9.170	-800.65424	8.95774	-638.67578	769.34558	10.14328	-644.39886	-708.88489	8.08398	495.85757	733.49402	6.93347	505.77432	-14.32400	1308.29004	-961.68378	
919	9.180	-800.53314	8.80474	-638.83740	769.33551	10.08273	-644.39514	-708.71509	7.95843	496.12967	733.52649	6.97723	505.73434	-14.19557	1308.19995	-961.64691	
920	9.190	-800.49994	8.82069	-638.84943	769.34686	10.08628	-644.34277	-708.71497	7.97922	496.09683	733.58081	7.05154	505.73416	-14.19001	1308.14600	-961.64435	
921	9.200	-800.55780	8.94213	-638.80914	769.31848	10.01128	-644.39233	-708.69855	7.94289	496.12244	733.26276	7.08370	505.87106	-14.18680	1308.10925	-961.67657	
922	9.210	-800.61298	8.95548	-638.68665	769.30951	10.08524	-644.35968	-708.70874	7.96803	496.10544	733.49500	6.97988	505.73450	-14.26485	1308.15662	-961.79828	
923	9.220	-800.65338	8.86180	-638.66644	769.37219	10.10303	-644.35516	-708.71948	7.89692	496.15005	733.44324	6.95044	505.76569	-14.28223	1308.16089	-961.83795	
924	9.230	-800.60535	8.85406	-638.69995	769.38770	10.09584	-644.35016	-708.69177	7.88258	496.17450	733.48163	6.94248	505.75330	-14.28993	1308.21313	-961.90552	
925	9.240	-800.51880	8.82370	-638.81152	769.36053	10.12007	-644.42249	-708.74017	7.93494	496.04788	733.50378	6.96889	505.73364	-14.16539	1308.21509	-961.82690	
926	9.250	-800.46442	8.97691	-638.88873	769.32867	10.17798	-644.40515	-708.75909	8.04386	496.07458	733.51434	7.01145	505.73782	-14.21832	1308.21228	-961.74847	
927	9.260	-800.54248	9.10915	-638.74200	769.32269	10.21347	-644.44482	-708.81366	8.13404	496.07663	733.50958	6.97977	505.75821	-14.24113	1308.24829	-961.66498	
928	9.270	-800.60181	8.95124	-638.69501	769.29932	10.12398	-644.39984	-708.74866	7.98565	496.16336	733.48816	6.94685	505.73096	-14.25172	1308.26660	-961.57813	
929	9.280	-800.70190	8.78639	-638.71588	769.37061	10.10271	-644.33435	-708.73474	8.03008	496.12564	733.52991	6.88147	505.76379	-14.26534	1308.20544	-961.38092	
930	9.290	-800.61151	8.52036	-638.89697	769.30725	10.15302	-644.38013	-708.71991	8.04176	496.13831	733.51129	6.90699	505.76157	-14.24688	1308.17432	-961.33667	
931	9.300	-800.57831	8.67390	-638.87109	769.31281	10.06828	-644.35931	-708.66138	7.95487	496.09625	733.56451	6.98644	505.76416	-14.35415	1308.15552	-961.29193	
932	9.310	-800.57056	8.80777	-638.80237	769.33655	10.04846	-644.38159	-708.70648	7.95971	496.13107	733.53540	6.94837	505.75031	-14.25745	1308.10999	-961.31030	
933	9.320	-800.60663	8.90116	-638.66180	769.33813	10.16718	-644.38483	-708.70520	8.08128	496.13553	733.53284	6.97735	505.73883	-14.11270	1308.14758	-961.35309	
934	9.330	-800.66046	8.84324	-638.68481	769.33795	10.20920	-644.40381	-708.74518	8.10222	496.11835	733.48431	6.93250	505.74252	-14.20461	1308.15234	-961.60614	
935	9.340	-800.70087	8.80659	-638.71100	769.37097	10.09729	-644.39996	-708.76422	8.11321	496.12494	733.45966	6.90306	505.74240	-14.27644	1308.23633	-961.92999	
936	9.350	-800.63470	8.59802	-638.84015	769.37488	10.11878	-644.34637	-708.76221	8.02563	496.13144	733.45831	6.94494	505.74600	-14.11928	1308.17273	-962.09760	
937	9.360	-800.54309	8.78342	-638.81934	769.28717	10.14863	-644.38928	-708.68079	7.92404	496.11475	733.52240	6.92428	505.73502	-14.08267	1308.12000	-962.10516	
938	9.370	-800.59882	8.91018	-638.70807	769.30017	10.14239	-644.37872	-708.69293	7.97155	496.12357	733.52020	6.87994	505.78510	-14.06144	1308.19153	-962.15527	
939	9.380	-800.61957	8.87505	-638.66907	769.37848	10.14692	-644.36841	-708.65497	8.02162	496.17352	733.52356	6.90703	505.75940	-14.08161	1308.28284	-962.02667	
940	9.390	-800.66431	8.84656	-638.69208	769.38385	10.24650	-644.42230	-708.67413	8.02325	496.16693	733.51392	6.90840	505.75299	-14.23071	1308.31067	-961.79425	
941	9.400	-800.62805	8.75769	-638.78320	769.34668	10.25451	-644.39795	-708.80017	8.11239	496.08777	733.50281	6.93113	505.74582	-14.27048	1308.21448	-961.49878	
942	9.410	-800.58527	8.73231	-638.84418	769.34296	10.11106	-644.37036	-708.81580	8.10745	495.90198	733.49603	6.93135	505.74539	-14.30091	1308.11841	-961.22925	
943	9.420	-800.56171	8.76335	-638.81970	769.31836	10.07517	-644.43176	-709.07739	8.50908	495.85873	733.52472	6.99108	505.73523	-14.12066	1308.11169	-960.93146	
944	9.430	-800.60748	8.85606	-638.69849	769.31525	10.15973	-644.38135	-708.56897	7.81014	496.15170	733.55396	6.98489	505.73816	-14.11418	1308.06641	-960.98669	
945	9.440	-800.65381	8.87672	-638.63623	769.31995	10.22377	-644.43829	-708.53253	7.78598	496.14862	733.54016	6.94496	505.72250	-14.20783	1308.14453	-961.35620	
946	9.450	-800.68256	8.85331	-638.70587	769.39771	10.21997	-644.41791	-708.59888	7.79681	496.10437	733.52899	6.94738	505.73975	-14.19270	1308.28320	-961.73914	
947	9.460	-800.62085	8.78705	-638.82550	769.38416	10.17376	-644.39172	-709.29456	8.81767	495.70547	733.51941	6.93394	505.74030	-14.17788	1308.26428	-962.00104	
948	9.470	-800.57312	8.68661	-638.85968	769.36249	10.10192	-644.40405	-708.77185	8.01342	495.92300	733.51788	6.94202	505.75079	-14.07836	1308.18689	-962.17590	
949	9.480	-800.55450	8.73726	-638.78601	769.33521	10.12097	-644.40717	-708.75763	8.03851	496.04108	733.52765	6.96366	505.73517	-14.05906	1308.31323	-962.19965	
950	9.490	-800.60480	8.84619	-638.73834	769.29669	10.20416	-644.40472	-708.76605	8.11340	496.11240	733.52881	6.96719	505.73810	-14.04560	1308.22351	-962.14545	
951	9.500	-800.63611	8.88961	-638.70966	769.39728	10.23335	-644.42651	-708.70251	8.05870	496.14026	733.53772	6.95812	505.75970	-14.17160	1308.27625	-962.05658	
952	9.510	-800.63647	8.78923	-638.73407	769.34723	10.21994	-644.45099	-708.71692	8.05460	496.11862	733.52527	6.93717	505.75555	-14.14634	1308.20630	-961.80908	
953	9.520	-800.57751	8.66763	-638.81140	769.32446	10.14908	-644.39764	-708.74158	8.05623	496.10590	733.53040	6.96810	505.76236	-14.25506	1308.08362	-961.42883	
954	9.530	-800.55951	8.67245	-638.82758	769.30298	10.12708	-644.36670	-708.73102	7.99752	496.10632	733.48621	6.93870	505.75342	-14.16650	1308.03918	-961.27448	
955	9.540	-800.59644	8.79820	-638.79718	769.36035	10.11073	-644.35071	-708.75446	8.06660	496.12952	733.51727	6.95765	505.74927	-14.19178	1308.10632	-961.28430	
956	9.550	-800.64789	8.90876	-638.70331	769.38458	10.18907	-644.35443	-708.72260	8.05649	496.11276	733.19507	6.95383	505.91415	-14.30353	1308.16919	-961.39172	
957	9.560	-800.62347	8.84598	-638.70764	769.37384	10.25090	-644.38727	-708.76941	8.07613	496.14151	733.49719	6.91971	505.77393	-14.29916	1308.25928	-961.48944	
958	9.570	-800.62848	8.81086	-638.73199	769.33295	10.21744	-644.43512	-708.76172	8.05728	496.14926	733.15253	6.91985	505.93994	-14.17619	1308.25208	-961.61719	
959	9.580	-800.54388	8.70894	-638.77173	769.28931	10.13463	-644.47992	-708.69299	7.99470	496.11404	733.48657	6.93379	505.75909	-14.16024	1308.17468	-961.63641	
960	9.590	-800.53931	8.72110	-638.83978	769.36542	10.12862	-644.40845	-708.69788	7.99831	496.09354	733.56836	6.97902	505.73199	-14.12138	1308.12695	-961.69073	
961	9.600	-800.61963	8.86357	-638.74670	769.33905	10.15918	-644.40649	-708.74585	8.09943	496.08719	733.55145	6.97275	505.73077	-14.15554	1308.16846	-961.85272	
962	9.610	-800.61652	8.90589	-638.72528	769.37079	10.20119	-644.39746	-708.72980	8.11637	496.08670	733.54321	6.95062	505.72501	-14.14144	1308.19629	-961.90338	
